<?xml version="1.0" standalone="no"?>
<!DOCTYPE svg PUBLIC "-//W3C//DTD SVG 20010904//EN"
 "http://www.w3.org/TR/2001/REC-SVG-20010904/DTD/svg10.dtd">
<svg version="1.0" xmlns="http://www.w3.org/2000/svg"
 width="250.000000pt" height="250.000000pt" viewBox="0 0 250.000000 250.000000"
 preserveAspectRatio="xMidYMid meet">
<metadata>
Created by potrace 1.14, written by Peter Selinger 2001-2017
</metadata>
<g transform="translate(0.000000,250.000000) scale(0.100000,-0.100000)"
fill="#000000" stroke="none">
<path d="M1119 2496 c-2 -2 -24 -6 -49 -9 -104 -14 -257 -59 -350 -105 -43
-21 -173 -94 -180 -102 -3 -3 -33 -27 -67 -53 -184 -142 -336 -361 -412 -595
-29 -91 -34 -112 -51 -222 -9 -57 -6 -316 4 -360 3 -14 8 -34 10 -45 42 -207
136 -401 272 -561 32 -37 74 -82 93 -99 19 -16 42 -37 50 -46 37 -38 163 -120
248 -163 200 -100 363 -136 593 -131 116 2 172 10 307 39 12 3 64 21 115 42
402 160 680 489 773 914 22 100 26 329 9 445 -26 172 -96 349 -199 506 -62 94
-239 271 -331 332 -125 82 -301 161 -404 181 -14 2 -47 10 -75 16 -45 11 -347
24 -356 16z"/>
</g>
</svg>
